<svg xmlns="http://www.w3.org/2000/svg" viewBox="0 0 512 512" width="512" height="512">
  <g transform="translate(-49.93,-91.23) scale(1.16)">
    <path d="M 220.36 463.29 L 412.96 364.92" stroke="#090909" stroke-width="19.0" fill="none" stroke-linecap="round"/>
    <path d="M 119.64 180.71 L 331.04 135.08" stroke="#090909" stroke-width="19.0" fill="none" stroke-linecap="round"/>
    <path d="M 414.46 364.32 L 415.91 363.61 L 417.32 362.79 L 418.69 361.86 L 420.01 360.81 L 421.28 359.66 L 422.50 358.40 L 423.68 357.03 L 424.80 355.56 L 425.87 353.98 L 426.89 352.30 L 427.85 350.52 L 428.76 348.63 L 429.61 346.66 L 430.41 344.58 L 431.15 342.42 L 431.83 340.16 L 432.45 337.81 L 433.01 335.38 L 433.51 332.86 L 433.95 330.26 L 434.33 327.58 L 434.64 324.82 L 434.90 322.00 L 435.09 319.09 L 435.22 316.13 L 435.29 313.09 L 435.30 310.00 L 435.24 306.84 L 435.12 303.63 L 434.94 300.36 L 434.70 297.05 L 434.40 293.69 L 434.03 290.29 L 433.60 286.84 L 433.11 283.36 L 432.56 279.85 L 431.96 276.31 L 431.29 272.74 L 430.56 269.15 L 429.78 265.54 L 428.94 261.92 L 428.04 258.28 L 427.09 254.63 L 426.08 250.99 L 425.02 247.34 L 423.91 243.69 L 422.74 240.05 L 421.53 236.41 L 420.27 232.80 L 418.96 229.20 L 417.60 225.61 L 416.20 222.06 L 414.75 218.53 L 413.26 215.03 L 411.74 211.57 L 410.17 208.14 L 408.56 204.76 L 406.92 201.42 L 405.25 198.13 L 403.54 194.89 L 401.80 191.70 L 400.03 188.57 L 398.23 185.50 L 396.41 182.50 L 394.56 179.56 L 392.69 176.69 L 390.80 173.90 L 388.90 171.18 L 386.97 168.53 L 385.03 165.97 L 383.08 163.49 L 381.12 161.10 L 379.14 158.79 L 377.17 156.58 L 375.18 154.45 L 373.19 152.42 L 371.20 150.49 L 369.22 148.65 L 367.23 146.92 L 365.25 145.28 L 363.28 143.75 L 361.31 142.33 L 359.36 141.01 L 357.42 139.80 L 355.49 138.69 L 353.58 137.70 L 351.68 136.82 L 349.81 136.05 L 347.96 135.39 L 346.13 134.85 L 344.33 134.41 L 342.55 134.10 L 340.81 133.89 L 339.09 133.81 L 337.41 133.83 L 335.76 133.97 L 334.15 134.23 L 332.58 134.60 L 331.04 135.08" stroke="#090909" stroke-width="19.0" fill="none" stroke-linecap="round"/>
    <path d="M 224.06 461.65 L 227.64 459.70 L 231.09 457.44 L 234.40 454.88 L 237.58 452.03 L 240.61 448.89 L 243.50 445.48 L 246.24 441.78 L 248.82 437.82 L 251.24 433.60 L 253.51 429.14 L 255.61 424.43 L 257.54 419.50 L 259.31 414.35 L 260.91 408.99 L 262.34 403.44 L 263.60 397.70 L 264.69 391.79 L 265.61 385.72 L 266.36 379.51 L 266.95 373.16 L 267.36 366.69 L 267.61 360.12 L 267.70 353.46 L 267.62 346.72 L 267.39 339.92 L 267.00 333.07 L 266.45 326.19 L 265.76 319.29 L 264.93 312.38 L 263.95 305.48 L 262.84 298.61 L 261.60 291.77 L 260.24 284.99 L 258.76 278.28 L 257.16 271.65 L 255.45 265.11 L 253.64 258.68 L 251.74 252.37 L 249.75 246.20 L 247.68 240.18 L 245.53 234.31 L 243.32 228.62 L 241.04 223.11 L 238.71 217.80 L 236.34 212.69 L 233.93 207.79 L 231.49 203.12 L 229.03 198.69 L 226.55 194.49 L 224.07 190.55 L 221.59 186.87 L 219.12 183.45 L 216.66 180.30 L 214.23 177.43 L 211.83 174.84 L 209.47 172.53 L 207.15 170.52 L 204.89 168.80 L 202.70 167.38 L 200.57 166.25 L 198.51 165.42 L 196.54 164.89 L 194.65 164.66 L 192.86 164.73 L 191.17 165.09" stroke="#090909" stroke-width="16.0" fill="none" stroke-linecap="round" stroke-linejoin="round"/>
    <path d="M 351.01 396.74 L 354.30 395.06 L 357.48 393.11 L 360.54 390.90 L 363.48 388.43 L 366.29 385.71 L 368.98 382.74 L 371.54 379.53 L 373.96 376.08 L 376.24 372.41 L 378.39 368.51 L 380.39 364.41 L 382.25 360.11 L 383.96 355.61 L 385.53 350.93 L 386.94 346.08 L 388.21 341.06 L 389.33 335.89 L 390.31 330.58 L 391.13 325.14 L 391.81 319.58 L 392.34 313.92 L 392.72 308.16 L 392.96 302.32 L 393.06 296.41 L 393.02 290.44 L 392.85 284.43 L 392.54 278.38 L 392.10 272.32 L 391.54 266.25 L 390.85 260.19 L 390.04 254.14 L 389.12 248.12 L 388.09 242.15 L 386.95 236.24 L 385.72 230.39 L 384.38 224.63 L 382.96 218.95 L 381.46 213.38 L 379.87 207.93 L 378.22 202.60 L 376.50 197.41 L 374.71 192.37 L 372.88 187.48 L 371.00 182.76 L 369.07 178.22 L 367.12 173.87 L 365.13 169.70 L 363.12 165.74 L 361.11 161.99 L 359.08 158.46 L 357.05 155.15 L 355.03 152.06 L 353.02 149.22 L 351.04 146.61 L 349.08 144.25 L 347.15 142.13 L 345.26 140.27 L 343.42 138.66 L 341.63 137.31 L 339.89 136.21 L 338.22 135.38 L 336.63 134.80 L 335.10 134.48 L 333.66 134.43 L 332.30 134.63 L 331.04 135.08" stroke="#090909" stroke-width="16.0" fill="none" stroke-linecap="round" stroke-linejoin="round"/>
    <path d="M 196.21 233.04 L 193.72 227.60 L 191.18 222.38 L 188.61 217.38 L 186.01 212.63 L 183.39 208.12 L 180.76 203.87 L 178.12 199.89 L 175.49 196.18 L 172.87 192.74 L 170.28 189.60 L 167.71 186.74 L 165.17 184.18 L 162.69 181.92 L 160.25 179.96 L 157.87 178.31 L 155.56 176.98 L 153.33 175.95 L 151.17 175.23 L 149.11 174.83 L 147.14 174.73 L 145.27 174.95 L 143.50 175.48" stroke="#090909" stroke-width="16.0" fill="none" stroke-linecap="round" stroke-linejoin="round"/>
    <path d="M 306.35 419.41 L 309.81 417.83 L 313.16 415.97 L 316.39 413.83 L 319.49 411.42 L 322.47 408.73 L 325.32 405.79 L 328.03 402.59 L 330.60 399.13 L 333.03 395.44 L 335.31 391.51 L 337.45 387.35 L 339.43 382.98 L 341.27 378.40 L 342.95 373.62 L 344.48 368.66 L 345.85 363.51 L 347.06 358.20 L 348.12 352.74 L 349.03 347.13 L 349.78 341.39 L 350.37 335.53 L 350.81 329.57 L 351.11 323.51 L 351.25 317.37 L 351.24 311.17 L 351.09 304.90 L 350.80 298.60 L 350.37 292.27 L 349.80 285.92 L 349.11 279.57 L 348.28 273.23 L 347.34 266.92 L 346.27 260.65 L 345.09 254.43 L 343.80 248.27 L 342.41 242.18 L 340.93 236.19 L 339.35 230.30 L 337.68 224.52 L 335.94 218.87 L 334.12 213.36 L 332.24 207.99 L 330.29 202.78 L 328.29 197.75 L 326.25 192.89 L 324.16 188.22 L 322.04 183.75 L 319.90 179.48 L 317.74 175.44 L 315.56 171.61 L 313.38 168.02 L 311.21 164.66 L 309.04 161.54 L 306.89 158.67 L 304.76 156.06 L 302.66 153.71 L 300.61 151.61 L 298.59 149.79 L 296.63 148.23 L 294.72 146.94 L 292.87 145.92 L 291.10 145.18 L 289.40 144.70 L 287.78 144.50 L 286.25 144.57 L 284.82 144.92" stroke="#090909" stroke-width="16.0" fill="none" stroke-linecap="round" stroke-linejoin="round"/>
    <path d="M 265.17 440.58 L 268.69 438.82 L 272.09 436.77 L 275.37 434.42 L 278.51 431.80 L 281.52 428.89 L 284.39 425.71 L 287.11 422.27 L 289.69 418.57 L 292.12 414.62 L 294.40 410.42 L 296.52 406.00 L 298.48 401.35 L 300.29 396.48 L 301.93 391.42 L 303.41 386.16 L 304.73 380.72 L 305.89 375.11 L 306.88 369.35 L 307.71 363.44 L 308.38 357.40 L 308.89 351.24 L 309.24 344.97 L 309.43 338.61 L 309.47 332.17 L 309.35 325.67 L 309.08 319.11 L 308.67 312.52 L 308.11 305.90 L 307.41 299.27 L 306.58 292.65 L 305.62 286.04 L 304.52 279.47 L 303.31 272.94 L 301.98 266.47 L 300.54 260.07 L 298.99 253.76 L 297.35 247.54 L 295.61 241.44 L 293.78 235.46 L 291.87 229.62 L 289.89 223.93 L 287.84 218.39 L 285.73 213.03 L 283.57 207.85 L 281.36 202.86 L 279.12 198.07 L 276.84 193.50 L 274.53 189.14 L 272.21 185.02 L 269.89 181.13 L 267.55 177.48 L 265.23 174.09 L 262.92 170.95 L 260.62 168.08 L 258.36 165.47 L 256.13 163.13 L 253.94 161.07 L 251.80 159.30 L 249.72 157.80 L 247.70 156.58 L 245.75 155.65 L 243.87 155.01 L 242.08 154.65 L 240.37 154.58 L 238.76 154.79 L 237.24 155.29" stroke="#090909" stroke-width="16.0" fill="none" stroke-linecap="round" stroke-linejoin="round"/>
    <path d="M 392.29 375.55 L 395.51 374.04 L 398.63 372.27 L 401.64 370.25 L 404.54 367.99 L 407.32 365.48 L 409.98 362.73 L 412.51 359.75 L 414.92 356.54 L 417.20 353.12 L 419.35 349.48 L 421.36 345.64 L 423.24 341.61 L 424.97 337.38 L 426.57 332.98 L 428.03 328.41 L 429.34 323.69 L 430.52 318.81 L 431.55 313.79 L 432.44 308.65 L 433.20 303.39 L 433.81 298.02 L 434.28 292.56" stroke="#090909" stroke-width="16.0" fill="none" stroke-linecap="round" stroke-linejoin="round"/>
    <path d="M 191.34 165.13 L 195.10 164.21 L 198.95 163.59 L 202.88 163.27 L 206.90 163.25 L 210.98 163.52 L 215.13 164.08 L 219.34 164.93 L 223.60 166.07 L 227.90 167.50 L 232.23 169.20 L 236.60 171.17 L 240.98 173.42 L 245.38 175.92 L 249.78 178.68 L 254.17 181.69 L 258.56 184.93 L 262.94 188.41 L 267.28 192.11 L 271.60 196.02 L 275.87 200.13 L 280.10 204.44 L 284.28 208.92 L 288.39 213.58 L 292.44 218.39 L 296.41 223.35 L 300.30 228.45 L 304.11 233.67 L 307.82 239.00 L 311.44 244.42 L 314.95 249.93 L 318.35 255.51 L 321.64 261.14 L 324.80 266.82 L 327.85 272.53 L 330.76 278.26 L 333.55 283.99 L 336.19 289.71 L 338.70 295.40 L 341.07 301.06 L 343.29 306.66 L 345.36 312.21 L 347.29 317.67 L 349.06 323.05 L 350.68 328.32 L 352.15 333.48 L 353.47 338.52 L 354.62 343.41 L 355.63 348.16 L 356.48 352.74 L 357.17 357.15 L 357.72 361.39 L 358.11 365.43 L 358.35 369.27 L 358.45 372.90 L 358.40 376.31 L 358.21 379.49 L 357.88 382.45 L 357.41 385.16 L 356.81 387.62 L 356.08 389.84 L 355.23 391.79 L 354.25 393.49 L 353.16 394.91 L 351.96 396.07 L 350.66 396.96 L 349.25 397.57" stroke="#090909" stroke-width="16.0" fill="none" stroke-linecap="round" stroke-linejoin="round"/>
    <path d="M 196.21 233.04 L 200.62 238.12 L 204.95 243.38 L 209.20 248.80 L 213.37 254.37 L 217.45 260.07 L 221.42 265.90 L 225.29 271.84 L 229.05 277.86 L 232.68 283.97 L 236.20 290.15 L 239.58 296.37 L 242.83 302.63 L 245.94 308.92 L 248.91 315.20 L 251.73 321.48 L 254.40 327.74 L 256.92 333.95 L 259.27 340.12 L 261.47 346.22 L 263.50 352.23 L 265.37 358.16 L 267.07 363.97 L 268.61 369.66 L 269.98 375.21 L 271.17 380.62 L 272.20 385.86 L 273.06 390.93 L 273.76 395.82 L 274.28 400.51 L 274.64 404.99 L 274.84 409.26 L 274.87 413.30 L 274.75 417.10 L 274.47 420.65 L 274.03 423.95 L 273.45 426.99 L 272.72 429.77 L 271.85 432.26 L 270.84 434.48 L 269.70 436.41 L 268.43 438.05 L 267.04 439.40 L 265.53 440.45 L 263.91 441.20" stroke="#090909" stroke-width="16.0" fill="none" stroke-linecap="round" stroke-linejoin="round"/>
    <path d="M 240.29 154.47 L 243.98 153.75 L 247.75 153.30 L 251.60 153.14 L 255.52 153.27 L 259.51 153.67 L 263.55 154.35 L 267.64 155.31 L 271.78 156.54 L 275.95 158.04 L 280.15 159.80 L 284.38 161.82 L 288.62 164.09 L 292.87 166.61 L 297.12 169.37 L 301.36 172.35 L 305.59 175.57 L 309.79 178.99 L 313.97 182.63 L 318.12 186.46 L 322.22 190.48 L 326.28 194.67 L 330.28 199.03 L 334.21 203.55 L 338.08 208.21 L 341.88 213.01 L 345.59 217.93 L 349.22 222.95 L 352.76 228.08 L 356.20 233.28 L 359.54 238.57 L 362.77 243.91 L 365.88 249.29 L 368.88 254.71 L 371.76 260.16 L 374.52 265.61 L 377.15 271.05 L 379.64 276.48 L 382.01 281.88 L 384.23 287.23 L 386.31 292.53 L 388.26 297.76 L 390.06 302.91 L 391.71 307.97 L 393.22 312.92 L 394.58 317.75 L 395.80 322.46 L 396.86 327.03 L 397.78 331.45 L 398.55 335.71 L 399.18 339.81 L 399.66 343.72 L 400.00 347.45 L 400.20 350.98 L 400.26 354.30 L 400.18 357.41 L 399.97 360.30 L 399.62 362.97 L 399.15 365.40 L 398.55 367.60 L 397.84 369.55 L 397.00 371.25 L 396.06 372.70 L 395.01 373.89 L 393.85 374.83 L 392.60 375.51" stroke="#090909" stroke-width="16.0" fill="none" stroke-linecap="round" stroke-linejoin="round"/>
    <path d="M 146.11 174.79 L 150.03 173.99 L 154.05 173.49 L 158.15 173.30 L 162.33 173.42 L 166.58 173.85 L 170.90 174.58 L 175.27 175.62 L 179.69 176.95 L 184.16 178.58 L 188.65 180.49 L 193.17 182.69 L 197.72 185.17 L 202.27 187.92 L 206.82 190.93 L 211.37 194.19 L 215.90 197.71 L 220.41 201.45 L 224.90 205.43 L 229.34 209.62 L 233.75 214.03 L 238.10 218.62 L 242.39 223.40 L 246.62 228.36 L 250.77 233.47 L 254.84 238.74 L 258.83 244.14 L 262.72 249.66 L 266.51 255.29 L 270.20 261.02 L 273.78 266.83 L 277.24 272.70 L 280.58 278.63 L 283.79 284.60 L 286.87 290.60 L 289.81 296.61 L 292.62 302.61 L 295.28 308.60 L 297.79 314.56 L 300.16 320.47 L 302.37 326.33 L 304.43 332.11 L 306.33 337.80 L 308.07 343.40 L 309.65 348.89 L 311.07 354.25 L 312.33 359.47 L 313.43 364.54 L 314.36 369.46 L 315.14 374.20 L 315.75 378.75 L 316.21 383.12 L 316.50 387.27 L 316.65 391.22 L 316.64 394.94 L 316.47 398.43 L 316.16 401.68 L 315.71 404.68 L 315.11 407.43 L 314.38 409.91 L 313.51 412.13 L 312.52 414.08 L 311.40 415.76 L 310.16 417.15 L 308.81 418.26 L 307.35 419.08" stroke="#090909" stroke-width="16.0" fill="none" stroke-linecap="round" stroke-linejoin="round"/>
    <path d="M 285.60 144.77 L 289.13 143.94 L 292.74 143.39 L 296.43 143.11 L 300.19 143.09 L 304.01 143.35 L 307.89 143.87 L 311.82 144.66 L 315.80 145.70 L 319.81 147.01 L 323.85 148.56 L 327.92 150.37 L 332.00 152.42 L 336.09 154.70 L 340.19 157.22 L 344.29 159.96 L 348.37 162.91 L 352.44 166.08 L 356.48 169.44 L 360.49 173.00 L 364.46 176.73 L 368.39 180.64 L 372.28 184.72 L 376.10 188.94 L 379.86 193.31 L 383.56 197.81 L 387.17 202.43 L 390.71 207.15 L 394.17 211.98 L 397.53 216.89 L 400.80 221.87 L 403.97 226.92 L 407.03 232.02 L 409.98 237.15 L 412.82 242.31 L 415.54 247.48 L 418.14 252.65 L 420.62 257.80 L 422.97 262.94 L 425.19 268.04 L 427.28 273.08 L 429.24 278.07 L 431.06 282.99 L 432.74 287.82 L 434.28 292.56" stroke="#090909" stroke-width="16.0" fill="none" stroke-linecap="round" stroke-linejoin="round"/>
    <path d="M 220.36 463.29 L 222.20 462.56 L 223.99 461.69 L 225.72 460.68 L 227.40 459.53 L 229.03 458.24 L 230.59 456.83 L 232.09 455.28 L 233.54 453.59 L 234.92 451.78 L 236.23 449.84 L 237.49 447.77 L 238.67 445.58 L 239.79 443.27 L 240.84 440.84 L 241.81 438.29 L 242.72 435.63 L 243.56 432.85 L 244.32 429.96 L 245.01 426.97 L 245.62 423.88 L 246.17 420.68 L 246.63 417.39 L 247.02 414.00 L 247.34 410.52 L 247.57 406.95 L 247.73 403.30 L 247.82 399.57 L 247.83 395.77 L 247.76 391.89 L 247.61 387.94 L 247.39 383.92 L 247.09 379.85 L 246.72 375.72 L 246.26 371.53 L 245.74 367.30 L 245.14 363.02 L 244.46 358.70 L 243.72 354.35 L 242.89 349.96 L 242.00 345.55 L 241.04 341.11 L 240.00 336.65 L 238.90 332.18 L 237.73 327.70 L 236.49 323.21 L 235.19 318.72 L 233.82 314.24 L 232.39 309.76 L 230.90 305.30 L 229.34 300.85 L 227.73 296.42 L 226.06 292.02 L 224.34 287.65 L 222.56 283.31 L 220.73 279.01 L 218.86 274.75 L 216.93 270.54 L 214.95 266.37 L 212.94 262.27 L 210.88 258.22 L 208.78 254.24 L 206.64 250.32 L 204.46 246.47 L 202.25 242.70 L 200.01 239.01 L 197.74 235.40 L 195.44 231.87 L 193.12 228.43 L 190.77 225.09 L 188.41 221.84 L 186.02 218.69 L 183.62 215.64 L 181.21 212.69 L 178.78 209.86 L 176.35 207.13 L 173.91 204.52 L 171.47 202.03 L 169.02 199.65 L 166.58 197.39 L 164.14 195.26 L 161.70 193.25 L 159.28 191.37 L 156.86 189.62 L 154.46 187.99 L 152.07 186.50 L 149.70 185.15 L 147.35 183.93 L 145.02 182.84 L 142.72 181.90 L 140.44 181.09 L 138.19 180.42 L 135.98 179.89 L 133.80 179.50 L 131.65 179.25 L 129.54 179.14 L 127.47 179.17 L 125.45 179.34 L 123.46 179.66 L 121.53 180.11 L 119.64 180.71 L 117.80 181.44 L 116.01 182.31 L 114.28 183.32 L 112.60 184.47 L 110.97 185.76 L 109.41 187.17 L 107.91 188.72 L 106.46 190.41 L 105.08 192.22 L 103.77 194.16 L 102.51 196.23 L 101.33 198.42 L 100.21 200.73 L 99.16 203.16 L 98.19 205.71 L 97.28 208.37 L 96.44 211.15 L 95.68 214.04 L 94.99 217.03 L 94.38 220.12 L 93.83 223.32 L 93.37 226.61 L 92.98 230.00 L 92.66 233.48 L 92.43 237.05 L 92.27 240.70 L 92.18 244.43 L 92.17 248.23 L 92.24 252.11 L 92.39 256.06 L 92.61 260.08 L 92.91 264.15 L 93.28 268.28 L 93.74 272.47 L 94.26 276.70 L 94.86 280.98 L 95.54 285.30 L 96.28 289.65 L 97.11 294.04 L 98.00 298.45 L 98.96 302.89 L 100.00 307.35 L 101.10 311.82 L 102.27 316.30 L 103.51 320.79 L 104.81 325.28 L 106.18 329.76 L 107.61 334.24 L 109.10 338.70 L 110.66 343.15 L 112.27 347.58 L 113.94 351.98 L 115.66 356.35 L 117.44 360.69 L 119.27 364.99 L 121.14 369.25 L 123.07 373.46 L 125.05 377.63 L 127.06 381.73 L 129.12 385.78 L 131.22 389.76 L 133.36 393.68 L 135.54 397.53 L 137.75 401.30 L 139.99 404.99 L 142.26 408.60 L 144.56 412.13 L 146.88 415.57 L 149.23 418.91 L 151.59 422.16 L 153.98 425.31 L 156.38 428.36 L 158.79 431.31 L 161.22 434.14 L 163.65 436.87 L 166.09 439.48 L 168.53 441.97 L 170.98 444.35 L 173.42 446.61 L 175.86 448.74 L 178.30 450.75 L 180.72 452.63 L 183.14 454.38 L 185.54 456.01 L 187.93 457.50 L 190.30 458.85 L 192.65 460.07 L 194.98 461.16 L 197.28 462.10 L 199.56 462.91 L 201.81 463.58 L 204.02 464.11 L 206.20 464.50 L 208.35 464.75 L 210.46 464.86 L 212.53 464.83 L 214.55 464.66 L 216.54 464.34 L 218.47 463.89 L 220.36 463.29 Z" stroke="#090909" stroke-width="19.0" fill="none"/>
  </g>
</svg>
